<svg width="64" height="64" viewBox="0 0 64 64" fill="none" xmlns="http://www.w3.org/2000/svg">
<path d="M31.2494 9.8785C31.8881 8.13717 32.4203 6.43138 33.13 4.72559C34.2654 7.14212 34.975 9.77189 36.1105 12.1529C38.8781 13.2545 41.894 13.7165 44.7326 14.7471C38.7006 17.7678 32.5268 20.6818 26.3884 23.5604C27.9141 18.9405 29.6173 14.4273 31.2494 9.8785ZM20.8532 15.067C23.6208 13.5744 26.3529 11.9397 29.1205 10.4471C26.8852 17.2703 24.366 24.0224 22.0951 30.8455C19.6114 26.1546 17.447 21.286 15.1052 16.5595C14.3601 14.9603 13.5085 13.4322 12.8698 11.7975C15.6374 12.7215 18.1566 14.2496 20.8532 15.067ZM33.13 22.2455C39.3038 19.2248 45.4777 16.2041 51.687 13.219C50.6935 15.8132 49.5226 18.3008 48.4227 20.8595C49.8774 23.5604 51.6161 26.1191 52.9644 28.891C46.2938 26.7943 39.6941 24.5554 33.13 22.2455ZM14.502 18.9761C16.347 22.4587 17.9437 26.1191 19.6469 29.6373C20.8178 32.0893 22.0596 34.5059 23.1241 36.9935C16.9857 34.8612 10.8119 32.6579 4.70898 30.348C7.12175 29.2463 9.67645 28.5001 12.0892 27.4695C12.9053 24.6265 13.7214 21.819 14.502 18.9761ZM38.949 25.7637C44.0939 27.4339 49.2033 29.3174 54.3482 31.0588C55.9803 31.6629 57.7189 32.1249 59.3156 32.9067C56.619 33.9728 53.9224 35.0034 51.2612 36.034C50.2677 39.0902 49.5936 42.2886 48.5646 45.3448C46.4712 41.4712 44.6616 37.4555 42.7101 33.5464C41.4327 30.9877 40.0844 28.3935 38.949 25.7637ZM38.7361 39.0191C39.4103 37.0646 39.978 35.11 40.7941 33.191C41.7166 34.8257 42.4972 36.5315 43.3488 38.2018C45.4777 42.715 47.784 47.0861 49.842 51.5993C47.2873 50.5687 44.768 49.396 42.1779 48.3299C39.4812 49.7869 36.9265 51.4927 34.159 52.8787C35.5782 48.1877 37.2459 43.639 38.7361 39.0191ZM10.528 34.6836C16.347 36.496 22.0241 38.6637 27.7722 40.5828C28.6238 40.8671 29.5108 41.1869 30.2914 41.6133C24.0821 44.4919 17.9437 47.6191 11.6634 50.3911C12.6924 47.8679 13.9343 45.4158 14.9278 42.8571C13.7214 40.0142 11.8763 37.4555 10.528 34.6836ZM22.8402 46.6952C27.5593 44.4208 32.2075 42.0043 36.962 39.8365C35.6847 44.0654 34.0525 48.2588 32.6687 52.4878C31.8526 54.7266 31.1785 57.0721 30.256 59.2754C29.085 56.8233 28.269 54.1936 27.169 51.7059C24.224 50.6043 21.1726 50.0001 18.1921 49.1828C19.5759 48.1167 21.3145 47.5481 22.8402 46.6952Z" fill="#007D3F"/>
</svg>
